<svg width="400" height="300" viewBox="0 0 400 300" fill="none" xmlns="http://www.w3.org/2000/svg">
<rect width="400" height="300" rx="12" fill="#0a1628"/>
<rect x="160" y="70" width="80" height="85" rx="6" fill="#025864" stroke="#93E85F" stroke-width="1.5"/>
<rect x="160" y="70" width="80" height="22" rx="6" fill="#93E85F" opacity="0.3"/>
<path d="M178 63V77" stroke="#93E85F" stroke-width="2.5" stroke-linecap="round"/>
<path d="M222 63V77" stroke="#93E85F" stroke-width="2.5" stroke-linecap="round"/>
<rect x="170" y="102" width="10" height="10" rx="2" fill="white" opacity="0.15"/>
<rect x="186" y="102" width="10" height="10" rx="2" fill="white" opacity="0.15"/>
<rect x="202" y="102" width="10" height="10" rx="2" fill="white" opacity="0.15"/>
<rect x="218" y="102" width="10" height="10" rx="2" fill="white" opacity="0.15"/>
<rect x="170" y="118" width="10" height="10" rx="2" fill="white" opacity="0.15"/>
<rect x="186" y="118" width="10" height="10" rx="2" fill="white" opacity="0.15"/>
<rect x="202" y="118" width="10" height="10" rx="2" fill="#93E85F" opacity="0.4"/>
<path d="M204 123L207 126L211 120" stroke="#93E85F" stroke-width="1.5" stroke-linecap="round"/>
<rect x="218" y="118" width="10" height="10" rx="2" fill="white" opacity="0.15"/>
<rect x="170" y="134" width="10" height="10" rx="2" fill="white" opacity="0.15"/>
<rect x="186" y="134" width="10" height="10" rx="2" fill="white" opacity="0.15"/>
<text x="200" y="220" text-anchor="middle" font-family="system-ui, sans-serif" font-size="14" font-weight="600" fill="#93E85F" opacity="0.6">STEP 5</text>
<text x="200" y="245" text-anchor="middle" font-family="system-ui, sans-serif" font-size="18" font-weight="700" fill="white">Calendar Booking</text>
</svg>
