<svg width="400" height="300" viewBox="0 0 400 300" fill="none" xmlns="http://www.w3.org/2000/svg">
<rect width="400" height="300" rx="12" fill="#0a1628"/>
<rect x="165" y="65" width="70" height="90" rx="6" fill="#025864" stroke="#93E85F" stroke-width="1.5"/>
<rect x="180" y="58" width="40" height="14" rx="4" fill="#93E85F"/>
<rect x="178" y="85" width="28" height="3" rx="1.5" fill="white" opacity="0.5"/>
<rect x="178" y="95" width="40" height="3" rx="1.5" fill="white" opacity="0.3"/>
<rect x="178" y="108" width="28" height="3" rx="1.5" fill="white" opacity="0.5"/>
<rect x="178" y="118" width="40" height="3" rx="1.5" fill="white" opacity="0.3"/>
<rect x="178" y="131" width="28" height="3" rx="1.5" fill="white" opacity="0.5"/>
<circle cx="218" cy="86" r="5" fill="#93E85F" opacity="0.3"/>
<path d="M215.5 86L217.5 88L221 84" stroke="#93E85F" stroke-width="1.5" stroke-linecap="round"/>
<circle cx="218" cy="109" r="5" fill="#93E85F" opacity="0.3"/>
<path d="M215.5 109L217.5 111L221 107" stroke="#93E85F" stroke-width="1.5" stroke-linecap="round"/>
<circle cx="218" cy="132" r="5" fill="#93E85F" opacity="0.3"/>
<path d="M215.5 132L217.5 134L221 130" stroke="#93E85F" stroke-width="1.5" stroke-linecap="round"/>
<text x="200" y="220" text-anchor="middle" font-family="system-ui, sans-serif" font-size="14" font-weight="600" fill="#93E85F" opacity="0.6">STEP 2</text>
<text x="200" y="245" text-anchor="middle" font-family="system-ui, sans-serif" font-size="18" font-weight="700" fill="white">Screening Quiz</text>
</svg>
